<?xml version="1.0" encoding="utf-8"?>
<!-- Generator: Adobe Illustrator 21.0.0, SVG Export Plug-In . SVG Version: 6.00 Build 0)  -->
<svg version="1.1" id="图层_1" xmlns="http://www.w3.org/2000/svg" xmlns:xlink="http://www.w3.org/1999/xlink" x="0px" y="0px"
	 viewBox="0 0 300 300" enable-background="new 0 0 300 300" xml:space="preserve">
<path fill="#020101" d="M28.3,177c-6.3-3-13.4-2.6-20.1-4.1c-4.9-1.1-6.3-2.7-5.1-7.5c2.7-11.1,4.3-12.2,14.8-8.7
	c2,0.7,4.1,1.4,6.2,2c1,0.3,2.3,1,2.9-0.2c0.4-0.8,0.4-2.5-0.1-2.9c-12.5-9.2,1.4-12.4,3.7-19.7c4.8,7,6.7,14.5,14.2,18.9
	c2.2-6.1,4.1-12.1,6.4-17.9c9.6-23.6,24.6-43.5,42.4-61.4c4.5-4.5,4.7-6.1-2.1-7.6c-7-1.6-14.8-3.4-15.7-12.6
	c-0.6-6.7,6-13.8,15-17.2c8.3-3.1,16.8-3.6,25.5-2.9c4.2,0.4,6.3,0,5.2-5.5c-2.7-14.7,4.3-22.9,19-20.9c27.8,3.6,48,19.2,61.9,43
	c2.7,4.7,5.8,7.8,10.6,10.4c31.5,16.5,58.1,38.3,72.8,71.7c19.4,43.8,9.6,102.4-34.6,131.7c-26.4,17.5-55.8,23.4-87,22.4
	c-26.3-0.9-51.9-4.6-75.5-17.7c-29-16.1-42.5-41.5-45.6-73.5c-0.4-3.9,1.2-9.3-2.3-11.2c-4-2.1-7.7,2.5-11.5,4.4
	c-2.1,1-3.8,5.6-6.3,2.1c-1.8-2.6-3.6-6.9,1-9.9C25.5,181,27.9,180.3,28.3,177z"/>
<path fill="#ED1C25" d="M131,37.8c-1.4-2.3-3.2-4.4-4.2-6.8c-4.4-10.2,0.8-18.3,11.8-17.7c17.6,0.9,31.5,10,44.3,21.2
	c5.7,5,10.9,10.8,13.9,17.7c3.5,8.1,9.6,12.1,17,16c23.2,12.2,42.9,28.6,58.1,50.2c3.6,5.2,3.1,7.4-2.8,9.9
	c-15.2,6.3-30.2,13-45.2,19.8c-4,1.8-7.5,1.8-11.7,0.6c-17.8-5.2-35.8-9.9-53.6-15.2c-6-1.8-9.3-1.7-8.8,5.7c0.1,1.3-0.2,2.7-0.6,4
	c-1.8,6.2,0.9,8.7,7,9.5c5.1,0.6,10.8-0.5,15.1,3.8c-1.1,5.5-1.9,11.2-5.6,15.8c-12,8.3-13.6,27.3-3.2,38.6c1.6,1.7,4.3,2.5,4.4,5.4
	c-1.4,2.3-3.7,3-6.1,3.4c-29.2,5-53.1,18.3-70.1,43.1c-0.6,0.9-1.5,1.5-2.6,1.6c-33.8-20.8-42.6-53.2-40.4-90
	c2.4-41.5,25.9-72,53.9-100c2.3-2.3,4.6-4.5,6.9-6.8c4.3-3.7,10.1-0.8,14.6-3c1.2-0.3-0.5-1.4,0.1-0.6c0.2,0.3,0,0.5-0.5,0.6
	c-5.8,2-11.9,0.2-17.8,1c-6.3-1.1-12.7-1.8-18.6-4.5c-7-3.3-7.8-7.3-2.5-12.9c5.5-5.9,12.9-7.4,20.4-8.1c5.6-0.5,11.2-0.2,16.8-0.2
	c9.1-0.6,16.4,4.4,24.1,8.2c2.2,1.4,4.7,2.1,7,3.1c-1.1-1.1-2.7-1.2-4.1-1.9C142.1,45.6,134.5,44.7,131,37.8z"/>
<path fill="#DCBEA4" d="M87.9,264.2c9.4-18.3,25.1-29.4,43.1-37.9c11.2-5.4,23.3-7.7,35.4-10.3c1.1-1.3,2.8-1.5,4.4-1.8
	c2.7,0,5.4-1.2,8.1-0.5c0.7,0.3,1.3,0.8,1.7,1.4c2.4,4.2,7,6.5,9.6,10.5c7.7,9.7,16.9,17.9,25.8,26.4c4.3,4.2,8.3,4.1,13.4,0.2
	c5.8-4.4,10.1-10.4,16.4-14.1c0.8-0.1,1.6,0,2.3,0.3c4.1,4.9,8.6,9.5,7.6,16.7c-14.9,15-34,21.6-54.1,24.7
	C162.3,285.9,123.9,283.5,87.9,264.2z"/>
<path fill="#ED1C25" d="M255.6,255.2c-2.1-5.8-5.1-11.1-8.7-16.1c2.7-9.2,12.4-17.9,21.4-18.4c5.4-0.3,6-2.2,3.4-6.3
	c-3.6-5.5-8.6-9.6-13.3-13.9c-2.3-2.1-4.7-4-2-7.3c5.4-2.8,10.1-6.4,12.7-12.2c3.6-8.1,3.1-15.8-1.7-23.3c-1.5-2.3-4.1-4.4-2.3-7.7
	c3.4-0.9,6.7-1.8,10.1-2.8c10-2.8,10.4-2.9,12.3,7.6c6.7,35.8,0.8,68.5-25.7,95.5C260,252,257.7,253.5,255.6,255.2z"/>
<path fill="#FCFCFC" d="M185.7,156.3c10,2.9,20.4,3.3,30.6,5.2c4.1,4.8,2.4,10.3,2.1,15.7c-2,5.1-6.9,7.2-10.6,10.4
	c-2.4,2.1-4.8,4.1-6.7,6.8c-3.4,3-7.6,3.6-11.9,3.8c-0.9-0.1-1.7-0.3-2.5-0.7c-5.1-2.9-10.2-5.8-14.1-10.4c-7.7-9-7.2-16.2-2.2-26.7
	C173.5,153.6,179.8,155,185.7,156.3z"/>
<path fill="#FCFCFC" d="M220,162.8c13.2-4.8,26.9-8.1,40.6-11.4c11.9,5.5,11.8,15.8,10.7,26.5c-3.1,7.6-8.3,13-15.9,16.2
	c-2.5,1.4-4.8,0.4-6.9-1c-7.7-5.5-15.6-10.7-25.1-12.6c-2.2-0.8-4-1.9-4.8-4.2C218.6,171.8,216.9,167.1,220,162.8z"/>
<path fill="#512123" d="M185.7,156.3c-7.6-0.9-14.3-0.4-16.5,9.1c-2.3,10,1.5,20.1,10.6,25.8c2.9,1.8,6.8,2,8.7,5.5
	c-2.9,2.7-5.9,1.3-8.9,0.1c-7.3-3.6-11.9-9.6-14.9-17c-1.2-3-2.4-6,0.2-8.9c2-4.9,2.1-10.6,6.3-14.6
	C176,153.8,180.9,153.4,185.7,156.3z"/>
<path fill="#632B2D" d="M269.9,178.1c2.4-10.8-0.6-19.7-9.3-26.7c1.5-0.5,3-1.1,4.4-1.6c4.1,7.4,10.1,14,8.4,23.5
	c-0.6,3.2-0.9,6.4-3.2,8.9C269,181,269.4,179.6,269.9,178.1z"/>
<path fill="#38070A" d="M131,37.8c5.9,3.3,11.7,6.7,17.6,10c0.1,2.9-1.7,2.4-3.4,1.8c-8.2-2.9-15.2-9-24.2-9.9
	C124.2,38.7,128.1,41.2,131,37.8z"/>
<path fill="#31070A" d="M104.8,65.5c6.4-2.2,13-0.9,21.6-1.9c-7.1,3.5-12.5,4.2-18.1,3.9C107.6,66,106.1,65.8,104.8,65.5z"/>
<path fill="#5A5A5A" d="M220,162.8c-0.8,4.8-1.1,9.7-0.2,14.5c-0.6,1.5-1.5,2.3-3.2,1.6c-0.1-5.8-0.2-11.7-0.3-17.5
	C217.5,161.9,218.8,162.4,220,162.8z"/>
<path fill="#9B2025" d="M164.9,170.9c0.2,10.9,6.7,18,14.5,24.3c3.6,9,1,15.5-7.9,20.2c-1.7,0.2-3.4,0.4-5.1,0.6
	c-15.1-5.7-16.8-36.2-6.4-42.9C161.5,172.1,162.8,170.8,164.9,170.9z"/>
<path fill="#9B2025" d="M140.6,200.8c0,10.8-3.7,18-9.4,18.4c-5.4,0.4-12.2-8.3-13.1-17.4c-0.4-3.4-0.5-7,0.7-10.4
	c1.7-4.8,2.7-10.6,9.2-10.8c6.7-0.1,9.5,4.9,11.5,10.6C140.7,194.4,140.5,197.6,140.6,200.8z"/>
<path fill="#9A2025" d="M88.5,208.2c0.1-2.1-0.1-4.4,0.5-6.4c1-3.1,3.1-5.8,6.5-6.4c3.1-0.5,4.9,2.1,6.3,4.2
	c3.2,4.9,3.8,10.6,2.7,16.2c-0.8,3.7-3.7,7.1-7.5,7.6c-3.4,0.5-5.2-3.2-6.9-5.9C88.4,214.6,88.5,211.4,88.5,208.2z"/>
<path fill="#780F14" d="M145.1,49.6c1.3-0.3,2.8-0.3,3.4-1.8c3.9,0.4,6.8,2.3,9.5,6.1C152.7,53.8,148.8,52,145.1,49.6z"/>
<path fill="#512711" d="M249.3,191.7c1.8,1,3.6,2.2,5.8,1.6c1-0.7,1.9-0.5,2.7,0.5c-2.9,3.2,0.6,3.8,2.1,5.3
	c5.8,5.5,12.3,10.5,15.6,18.2c1,2.4,1.7,5.8-1.9,5.2c-14.2-2.4-19,9.3-26.7,16.8c0,0-0.8,0-0.8,0c-0.7,0.4-1.4,0.4-2.1,0
	c-0.6-6.6,7.1-8.2,8.4-14.3c-3.4-0.6-6.8,0-10.2,0c-6.4-0.8-13.3,2.1-19.2-2.3c1.4-5.5,6-3.5,9.2-3.4c12.1,0.1,23.9-1.5,36.5-2.3
	c-4.6-11-15.9-14.5-21.7-23.2C247.1,192.1,247.6,191.1,249.3,191.7z"/>
<path fill="#4F3F26" d="M243.4,238.6c0.9,0.2,1.9,0.4,2.8,0.6c-5.7,6.1-11.8,11.8-18.6,16.7c-3.5,2.5-6.7,2.9-10.1-0.1
	c-10.2-9.1-20.5-18.1-28.8-29.2c0.1-0.4,0.3-0.7,0.4-1.1c0.7-0.3,1.5-0.5,2.2-0.5c3.9,1.1,6.1,4.2,8.4,7.1
	c4.8,6.2,10.7,11.2,16.4,16.4c5.3,4.8,9.2,3.5,13.8-0.6C234.1,244.3,236.9,238.7,243.4,238.6z"/>
<path fill="#E81A23" d="M171.5,215.4c6.3-5.3,8.7-12.1,7.9-20.2c3,0.5,6,0.9,9,1.4c0,0-0.1,0-0.1,0c7.2,2.1,7.6,2.8,2.5,8.2
	c-3.5,3.7-5,9.8-11.4,10.3C176.8,215.2,174.2,215.3,171.5,215.4z"/>
<path fill="#552411" d="M179.5,215.1c3.5-4,6.6-8.4,10.5-12c4.3-3.9,2-5.1-1.6-6.5c4.1-0.7,8.2-1.5,11.7-3.8
	c0.7,0.4,1.1,1.1,1.3,1.9c-4.1,9.1-10.9,15.9-18.2,22.4c-1.2,0.2-2.4,0.1-3.3-0.9C179.6,215.9,179.5,215.5,179.5,215.1z"/>
<path fill="#3B2D1F" d="M179.9,216.2c1,0,1.9,0,2.9,0c3,1.2,6.2,2.2,8.4,4.8c0.6,2.2-0.7,3.5-2.1,4.8c0,0-0.4,0.7-0.4,0.7
	C185.7,223.1,180.9,221.3,179.9,216.2z"/>
<path fill="#5F3135" d="M257.8,193.8c-0.9-0.2-1.8-0.3-2.7-0.5c6.3-3.7,11.4-8.5,14.7-15.2c0.1,1.4,0.2,2.8,0.4,4.1
	C267.6,187.8,264.2,192.4,257.8,193.8z"/>
<path fill="#0E0E0E" d="M207.3,171.1c-0.4,4.5-2.8,7.4-7.1,7.5c-4.3,0.1-7.2-2.6-7.2-7c0-4.2,2.4-7.2,7-7.3
	C204.5,164.2,206.7,167,207.3,171.1z"/>
<path fill="#4F442E" d="M200.6,195.3c-0.2-0.8-0.3-1.6-0.5-2.4c4.4-6,10.2-10.3,16.5-13.9c1.1-0.5,2.2-1,3.2-1.6
	c1.7,0.6,3.3,1.1,5,1.7c0.4,0.7,0.4,1.4-0.2,2.1c-6.8,2.5-12.9,6-17.9,11.2C205,194,203.4,195.9,200.6,195.3z"/>
<path fill="#0E0E0E" d="M233.8,176.2c-4.2-0.5-6.8-3-6.8-7.3c0.1-4.4,3.1-6.9,7.4-7c4.4-0.1,7,2.6,6.9,7.1
	C241.1,173.5,238.4,175.7,233.8,176.2z"/>
<path fill="#655839" d="M224.7,181.1c0-0.7,0.1-1.4,0.1-2c9.3,2.1,17.4,6.5,24.6,12.6c-0.7,0.5-1.4,1-2.1,1.5
	C238.5,191.4,231.1,187.3,224.7,181.1z"/>
<path fill="#F1B32B" d="M224.7,181.1c7.5,4,15.1,8.1,22.6,12.1c9.8,7,19.3,14.2,26.5,26.2c-17.8,0.6-34.2,1.2-50.6,1.8
	c-10.9,3.3-21.7,3.5-32.5-0.1c-3.1-0.9-6.4-1.4-7.9-4.8c5.9-7,11.9-13.9,17.8-20.9c5-4.1,9.9-8.2,14.9-12.2
	C218.2,181,221.3,180.5,224.7,181.1z"/>
<path fill="#F1B32B" d="M243.4,238.6c-5.1,4.4-10.2,8.6-15.2,13.2c-4.1,3.8-7.5,3.9-11.6-0.4c-8.4-8.7-17.1-17-25.7-25.5
	c0.7-4.7,4.4-3,7-3.1c12.9-0.7,25.8,0.8,38.7,0.7c2.7,0,5.4,0.6,8-0.6c3.7,0,7.4,0,11.8,0C253.6,230,247.1,233.2,243.4,238.6z"/>
<path fill="#674D13" d="M244.5,222.8c-15.4,2.6-30.9,1.1-46.4,1.6c-2.4,0.1-5.4-1.7-7.2,1.5c-0.6,0-1.2,0-1.7,0
	c0.5-1.6,1.1-3.2,1.6-4.8c10.8,0,21.7,0.1,32.5,0.1C230.1,224.2,237.4,221.5,244.5,222.8z"/>
</svg>
