<?xml version="1.0" encoding="utf-8"?>
<!-- Generator: Adobe Illustrator 21.0.0, SVG Export Plug-In . SVG Version: 6.00 Build 0)  -->
<svg version="1.1" id="图层_1" xmlns="http://www.w3.org/2000/svg" xmlns:xlink="http://www.w3.org/1999/xlink" x="0px" y="0px"
	 viewBox="0 0 1366 768" style="enable-background:new 0 0 1366 768;" xml:space="preserve">
<style type="text/css">
	.st0{fill:#FCB65F;}
	.st1{fill:#9B457A;}
	.st2{fill:#A44881;}
	.st3{fill:#AE4B88;}
	.st4{fill:#F2D2B0;}
	.st5{fill:#040404;}
	.st6{fill:#A94C83;}
	.st7{fill:#F3DBC0;}
	.st8{fill:#73716F;}
	.st9{fill:#A4A4A4;}
	.st10{fill:#D8B886;}
	.st11{fill:#F7CD9F;}
	.st12{fill:#FCAA3F;}
	.st13{fill:#F1C494;}
	.st14{fill:#FA8D00;}
	.st15{fill:#F0D0AB;}
	.st16{fill:#E2952F;}
	.st17{fill:#ADABAC;}
	.st18{fill:#D6D5D6;}
	.st19{fill:#C1BFC0;}
	.st20{fill:#C1C0C0;}
	.st21{fill:#D5D5D5;}
	.st22{fill:#B4B1AF;}
	.st23{fill:#C2C3C1;}
	.st24{fill:#8C8788;}
	.st25{fill:#A39B9E;}
	.st26{fill:#B6B5B6;}
	.st27{fill:#898279;}
	.st28{fill:#C4C4C4;}
	.st29{fill:#9C9B9B;}
</style>
<path class="st0" d="M431.7,437.7c-0.4-0.3-0.7-0.5-1.1-0.8c-9.1-8.5-17.7-17.5-26.6-26.3c-26.1-26.1-52.2-52.2-78.4-78.3
	c-3.4-3.4-6-7-6.5-11.9c-1.6-5.9,2.1-9.5,5.7-13.2c0.9-0.9,1.8-1.7,3-2.2c2.6-0.7,5.2-1.2,7.8-0.9c3.1,0.3,3.8-1.3,3.6-3.8
	c0.3-2.5-0.6-5.2,1.3-7.4c3,0.4,2.4,2.9,2.2,4.5c-0.6,5.7,1.9,10.2,5.7,13.8c10.5,9.8,20.4,20,30.5,30.1
	c6.6,6.6,13.6,12.7,19.6,19.9c2.6,3.1,5.4,5.9,8.6,8.4c2.4,1.8,4.8,3.8,6.5,6.1c6.2,8.3,14.4,14.7,21.7,22
	c6.5,6.6,12.5,13.8,19.5,19.9c0.2,0.9,0,1.8-0.6,2.3c-6.5,5-10.6,12.6-17.7,17.1C435,438,433.6,439.1,431.7,437.7z"/>
<path class="st1" d="M541.8,432c-0.2,0.6-0.2,1.4-0.6,1.8c-10.4,10.4-20.8,20.7-31.3,31.1c-2.7-0.2-1.9-2.1-1.5-3.5
	c1.2-3.7,0.5-6.1-3.8-6.6c-2.6-0.3-4.2-1.9-4.4-4.6c-0.1-1.5-0.7-2.8-1.6-4c-3.4-4.4-3.4-4.2-8-0.9c-3.7,2.6-6.8,5.8-10,8.8
	c-0.5,0.5-1.1,0.9-1.8,1.1c-1,0.2-1.9,0-2.4-1.1c-0.1-1,0.4-1.8,0.9-2.6c2.8-2.2,5.4-4.7,7.7-7.4c3.1-4.5,7.3-7.9,11-11.9
	c2.4-2.3,4.8-4.7,7.1-7.1c2.6-2.5,5.1-5.1,7.6-7.6c0.8-0.7,1.6-1.5,2.3-2.2c0.7-0.7,1.5-1.4,2.3-2c0.7-0.5,1.4-0.9,2-1.4
	c1.2-0.9,2-2.4,3.8-2.3c0.2,8,5.7,12.1,11.7,15.9c0.7,0.4,1.5,1,1.7,1.7c0.7,3.3,2,4.7,5.6,2.7C542.1,428.7,542.2,430.5,541.8,432z"
	/>
<path class="st2" d="M479.6,453.7c3.2-5.2,8.9-7.7,12.8-12.1c1-1.1,3.2-1.3,3.5-0.4c1.3,3.3,6.4,4.2,5.4,8.7
	c-0.5,2.5,0.9,3.3,2.8,3.8c6.8,1.7,6.8,1.7,5,8.7c-0.3,1.1-0.5,1.9,0.6,2.5c-6,6.1-11.9,12.4-18.1,18.4c-4.8,4.6-10.6,3.5-17.1-2.7
	c1.2-2.5,2.6-0.8,3.8-0.1c7.7,4.3,13.4,1.4,14.5-7.3c0.2-2,0-3.6-1.6-4.9C486.5,464.1,484.2,458,479.6,453.7z"/>
<path class="st3" d="M479.6,453.7c2.9,1.3,5.2,3.3,6.7,6.2c1.1,2,2.3,4.2,3.9,5.7c2.2,2,5,3.2,4.3,7c-0.8,4.8-2.7,8.7-7.1,11.2
	c-3.5,2-6-0.4-8.7-1.7c-1.3-0.6-1.8-3.3-4-1.6c-4.7-3.2-8.2-7.7-12.2-11.7c-1-2,0.1-3.2,1.6-4.4c0.4-0.2,0.9-0.4,1.3-0.5
	c2-0.1,3.2-1.5,4.4-2.7c1.9-1.8,3.7-3.8,6.6-3.6c2.6,0.2,1.1-2.3,2.2-3C479,454.3,479.3,454,479.6,453.7z"/>
<path class="st4" d="M327.7,305.8c-0.7,0.6-1.3,1.3-2,1.9c-0.4,0.4-0.8,0.4-1.2,0.1c-0.7-1.2-0.4-2.4,0.4-3.2
	c2.6-2.8,1.4-4.7-1.3-6.3c-8.1-4.9-14.8-11-17-20.8c-0.1-0.6-0.5-1.2-0.9-1.7c-1.6-5-3.3-10-4.9-14.9c1.8,0,3.8-1.6,5.5,0.3
	c0.4,6.9,3.9,11.6,8.9,16.4c5,4.6,10.2,9,15.1,13.6c1.6,1.5,3.1,3,4.2,4.9c2.3,4.1,0.9,7.5-3.6,8.9
	C329.8,305.2,328.5,304.7,327.7,305.8z"/>
<path class="st5" d="M305.5,260.4c-1.7-0.8-2.9,3.9-4.8,0.4c-2-6.7-4.1-13.4-6.1-20.1c0.6-1-1.5-3.8,1.5-2.9
	c7.9,2.4,16.1,3.7,23.4,7.9c0.7,2.2-1.4,2.7-2.5,3.7c-2.6,2.7-5.4,5.3-7.6,8.5C308.3,259,307.4,260.4,305.5,260.4z"/>
<path class="st6" d="M541.8,432c-1-3.8-2.5-0.3-3.5,0c-2.2,0.5-5.2,3.4-3.9-2.2c0.5-2-1-3.3-2.6-3.8c-2.3-0.6-3.7-2.2-5.2-3.8
	c-3.4-3.5-8.1-6.4-5.9-12.5c-0.6-0.9-0.1-1.6,0.4-2.4c1.1-1,2.2-2,3.6-2.6c5.4,5.5,11,10.9,16.2,16.7
	C543.5,424.3,543.9,428.2,541.8,432z"/>
<path class="st7" d="M305.6,275.7c1.1,0.5,2,1.4,2.2,2.5c2.1,9.2,9.1,14.2,16.4,18.9c5,3.2,5,3.5,1.3,8.4c-0.5,0.6-0.6,1.5-0.9,2.2
	c-3.2,3.4-5.9,7.1-6,12C314.3,305,310,290.3,305.6,275.7z"/>
<path class="st7" d="M319.7,320.6c1.1,5.3,4.4,9.1,8.1,12.8c33.4,33.3,66.7,66.6,100,100c1,1,1.9,2.3,2.8,3.5
	c-2.2,0.6-2.7-1.5-3.7-2.5c-34-33.9-67.9-67.8-101.8-101.7c-3.3-3.3-6.2-6.9-6.3-12C319,320.2,319.4,320.2,319.7,320.6z"/>
<path class="st8" d="M524.7,404.7c-0.1,2-1.8,2.3-3.1,3c-1.9,1.4-3.4,0.5-4.6-1.1c-3.6-6.1-9.5-10.1-14.3-15
	c-3.2-3.3-6.8-6.2-9.4-10c0.6-1.9,0.9-4,3.5-4.2c5,4.7,10,9.3,14.9,14C516,395.9,520.4,400.3,524.7,404.7z"/>
<path class="st9" d="M464.8,464.8c-0.8,1.3-2.2,2.3-2.2,4c-9.3-9.3-18.7-18.7-28-28c-0.4-2.3,1-3.2,2.9-3.5c3.2,1.3,5.1,4.1,7.4,6.4
	c5.7,5.5,11.3,11.1,16.9,16.7C463,461.6,464.5,462.9,464.8,464.8z"/>
<path class="st10" d="M437.7,437.7c-1.4,0.6-2.5,1.7-3.2,3.1c-1.2-0.8-2.4-1.6-2.8-3.1c4.6-0.6,7.6-3.9,10.3-7
	c3.9-4.6,8.4-8.7,12.7-12.9c4-6.4,9.7-11.2,15.4-16c0.9-0.4,1.8-0.7,2.8-0.1c1,2.7-1.2,3.8-2.5,5.5c-3.5,3.3-6.8,6.7-10.2,10.1
	c-3.3,3.1-6.6,6-9.7,9.2c-2.5,2-4.8,4.2-7,6.5c-0.9,0.9-1.7,2-2.4,3C440.2,437,439.1,437.7,437.7,437.7z"/>
<path class="st11" d="M319.7,320.6c-0.3,0-0.6,0-1,0c-0.1-0.3-0.1-0.6-0.1-0.9c-0.9-5.5,1.5-9.3,6-12c0.4,0,0.7,0,1.1,0.1
	C322.5,311.5,319,315.1,319.7,320.6z"/>
<path class="st12" d="M470.6,402.6c-5.3,5.1-10.6,10.1-15.9,15.2c-4.1-1.2-6.4-4.8-8.9-7.7c-3.3-3.8-7.3-6.9-10.4-10.5
	c-6.9-8.1-15.1-14.9-22.4-22.6c-7.6-8-15.9-15.4-23.6-23.5c-7.8-8.2-16.6-15.2-23.7-24c-4.1-5.1-9.5-9.3-14.4-13.7
	c-7-6.2-11.4-13.3-9.6-23.1c0-0.2,0.1-0.5,0.1-0.7c2.7-3,5-6.3,8.7-8.2c3.8-1,7.9,0.4,11.6-1.1c1.9-0.5,2.6,0.9,3.6,2.1
	c7.6,9.5,16.3,17.9,25,26.3c7.2,6.9,14.6,13.6,21.3,21.1c6.4,7.2,13.4,13.8,20.4,20.4c10.8,10.2,21.4,20.5,31.3,31.6
	c2.7,3,5.5,5.8,8.3,8.7c2.4,2.6,4.4,2.2,6.7-0.1c2.3-2.3,4.2-5.2,7.5-6.5c0.5,0,0.9,0,1.4,0.2c1.1,1.7-0.4,2.5-1.1,3.7
	c-0.5,0.5-0.9,1-1.4,1.5c-2,1.9-3.8,3.9-5.8,5.7c-0.7,0.6-1.5,1.1-2.4,1.4C474.5,399.6,472.1,400.4,470.6,402.6z"/>
<path class="st13" d="M362.7,282.7c-0.4,2.3-2.2,2-3.8,2c-3.1,0-6.2,0-9.2,0.1c-3.1,2.3-5.7,4.9-8,8c0,0,0,0,0,0c-2,2.4-0.5,5.3-1,8
	c-0.5,0.1-1.1,0.1-1.3-0.4c-3.7-9-11.3-14.9-18-21.4c-4-3.9-7.4-8.4-12.4-11.3c-3.6-2.1-3.1-6.1,0.5-10.1c1.6-2.1,3.4-4.1,5.4-5.8
	c4.4-3.5,8.6-2.7,11.4,2.3c1.8,3.3,4.6,5.7,7.8,7.5c3.4,1.9,6.1,4.4,8.1,7.9c3.3,5.5,9.1,8.1,14.3,11.3c2.3,1.4,2.7-0.3,3.1-2.1
	c0.4-1.8-1.1-4.7,2.5-4.8c1.6,2.6,0.9,5.4,0.9,8.2C362.8,282.2,362.7,282.4,362.7,282.7z"/>
<path class="st11" d="M309.6,257.7c-3.4,5.4-2.4,6.4,2.5,10.5c7.3,6.2,13.8,13.2,20.3,20.2c3.3,3.6,8,6.5,8.2,12.2
	c0.6,4.1-0.7,5.7-5.2,4.6c-2.4-0.6-5.1,0.3-7.7,0.5c9.1-5.3,9.6-6.9,1.2-14.1c-6.4-5.4-11.8-11.9-18.6-16.9c-5-3.7-4.6-9.2-4.8-14.4
	c0.6-1.2,1.6-2.2,2.8-2.8C308.8,257.2,309.2,257.2,309.6,257.7z"/>
<path class="st14" d="M486.5,386.6c-2.6,2.5-5.4,4.9-7.9,7.7c-2.5,2.8-4.4,2.8-6.9,0c-11.4-12.6-23-25-35.7-36.3
	c-13.5-12.1-24.9-26.1-38.5-38.2c-10.2-9.1-19.5-19.4-29.4-28.9c-2.5-2.4-2.9-6-5.5-8.1c0,0,0,0,0,0c-1.1-3-0.2-6.1-0.6-9.1
	c-0.2-1.2,0.3-2.2,0.9-3.1c4.8-6.8,10.9-9.7,19.1-6.8c1.9,0.3,3.4,1.4,4.6,2.7c8.2,8.6,17.1,16.5,24.9,25.4
	c5.4,5.6,10.8,11.1,16.2,16.7c1.3,2.7,3.3,4.8,6.1,6.1c1,1,2,1.9,2.9,2.9c4.2,5.8,9.3,10.8,15.1,15.1c12.3,12.3,24.6,24.6,36.9,36.9
	c0.6,2,2.3,3.1,3.6,4.6c2.8,3.1,2.9,5-0.2,7.9C490.4,383.6,488.5,385.2,486.5,386.6z"/>
<path class="st15" d="M411.6,291.7c-7.9-6.8-14.9-14.6-22.4-22c-2-2-4-4-6.6-5.2c-10-3-12.3-2.2-19,6.1c-0.3,0.7-0.6,1.4-0.9,2.1
	c-0.4,0.2-0.5,0.9-1.1,0.9c-1.8,2-0.8,4.4-1,6.7c-0.3,3.2-1.9,3.9-4.3,2.1c-6.3-4.6-14-7.5-17.4-15.6c-1-2.4-4.1-3.2-6.3-4.7
	c-3.6-2.3-7.1-4.7-8.3-9.3c-0.8-2.8-5.2-3.2-8.5-0.8c-2.3,1.7-4.2,3.7-6.3,5.6c-0.4,0-0.9-0.1-1.3-0.1c2.8-4.8,7-8.3,11.1-11.9
	c14.9,3.2,29.2,9,44.1,12c4.3,2.1,8.8,3.2,13.7,3.3c6.2,0.1,10.3,4.5,14.3,8.7c6.2,7.1,12.9,13.7,19.9,20
	C411.6,290.3,411.6,291,411.6,291.7z"/>
<path class="st16" d="M486.5,386.6c0.4-2.1,2-3.4,3.6-4.6c4.7-3.7,4.8-4.2,0.6-8.8c-1-1.1-2.3-2-1.9-3.8c3,2.4,5.6,5,8,8
	c-1,1.4-2.1,2.9-3.1,4.3c-0.4,0.7-0.5,1.5-0.9,2.2c-0.2,0.3-0.4,0.7-0.7,1c-0.3,0.3-0.6,0.5-0.9,0.7c-0.8,0.5-1.6,1.2-2.5,1.5
	c-0.4,0.1-0.8-0.1-1-0.4C487.2,386.7,486.8,386.6,486.5,386.6z"/>
<path class="st16" d="M451.9,332.5c-6-1.7-8.4-7.5-12.9-11c-1.2-1-2.7-2.1-2.2-4.1C441.9,322.4,446.9,327.5,451.9,332.5z"/>
<path class="st16" d="M433.9,314.5c-3.5-0.6-5.5-2.6-6.1-6.1C430.1,310.1,432.1,312.2,433.9,314.5z"/>
<path class="st17" d="M459.6,416.6c3-3.7,6.3-7,10-10c1.4-1.1,2.6-0.4,3.5,0.5c7.5,7.5,15.3,14.6,22.2,22.5c0.8,0.9,1.3,1.9,1.4,3.1
	c-3.7,4-7.4,7.9-11.1,11.9c-9-6-15.2-14.9-23.4-21.8C460.4,421.3,459.9,419,459.6,416.6z"/>
<path class="st18" d="M442.6,432.7c1.8-2.9,4.6-4.9,7.2-7.1c1.5-0.9,2.8-0.6,4,0.7c7.6,8.2,15.8,15.6,23.5,23.6
	c0.5,0.5,0.7,1.1,0.5,1.8c-0.3,0.7-0.6,1.4-1,2.2c-1.8,3.7-4.4,6.6-8.3,8c-4.6-6-10.4-10.9-15.4-16.7c-2.5-3-5.8-5.3-8.7-8
	C443.1,436,441.3,435,442.6,432.7z"/>
<path class="st19" d="M477.7,451.7c-8-7.9-16.1-15.7-24-23.6c-1.2-1.2-1.9-2.8-3.9-2.4c3.1-3.2,6.2-6.4,9.9-9
	c4.7,8.6,13.8,13.2,19.1,21.4c0.8,1.3,2.6,1.9,4.1,2.7c1.7,0.9,3.2,1.8,2.9,4C483.2,447.3,481.5,450.6,477.7,451.7z"/>
<path class="st20" d="M496.8,432.8c-7.6-7.8-15.2-15.5-22.8-23.2c-1.2-1.3-2.3-2.9-4.4-2.9c0.7-1.8,3.1-2.7,3-5c0.4-2.2,2.6-2.7,4-4
	c0.6-0.3,1.3-0.7,1.9-1c3.2,2,4.6,5.5,7.2,8c4.6,4.5,8.8,9.4,13.6,13.6c2.2,2,4.2,4.3,4.4,7.5C501.8,428.5,499.4,430.7,496.8,432.8z
	"/>
<path class="st21" d="M503.8,425.8c-5-8.1-13.1-13.2-19-20.4c-2.3-2.8-4.9-5.3-6.2-8.7c1.6-2.4,3.6-4.5,6.1-6.1c2-0.5,3,0.9,4.2,2.1
	c7.3,7.1,14.2,14.6,21.6,21.7c0.9,0.9,1.9,1.9,1.4,3.4C509.5,420.8,506.7,423.4,503.8,425.8z"/>
<path class="st22" d="M487.6,386.7c0.4,0,0.7,0,1.1,0c1.8-0.5,2.8,0.7,3.8,1.7c7.2,7.1,14.4,14.3,21.6,21.6c1,1,2.3,2,1.7,3.8
	c-0.7,0.7-1.4,1.3-2,2c-1.7-0.3-3.1-1.2-4.2-2.5c-7.2-8.7-15.9-15.9-24-23.8C486.3,388.6,486.9,387.7,487.6,386.7z"/>
<path class="st23" d="M485.6,389.6c4.1,1.6,7.1,4.9,10.1,7.8c6.2,5.9,12.1,12.3,18.1,18.4c-0.7,0.7-1.3,1.3-2,2
	c-8.9-9.2-17.6-18.6-27.1-27.2C485,390.3,485.3,389.9,485.6,389.6z"/>
<path class="st24" d="M491.5,384.6c0.1-0.3,0.2-0.6,0.3-0.9c2.2-1.3,3.4,0.6,4.6,1.7c7.5,6.3,14,13.7,21.2,20.3c0.8,1.8,2.3,2.1,4,2
	c-0.3,0.7-0.6,1.3-0.9,2c-0.7,1.3-1.7,2.3-3,3c-0.6-0.4-1-0.9-1.4-1.5c-6.8-7.4-13.9-14.5-21-21.6
	C493.9,388.1,492,386.9,491.5,384.6z"/>
<path class="st25" d="M517.6,410.7c0,0.7,0,1.3,0.1,2c-0.4,0.8-1.1,1-1.9,1.2c-8.6-9.5-17.7-18.5-27.1-27.2c0.3-1,0.9-1.7,1.9-1.9
	c7.8,7.1,14.7,15.1,22.3,22.3C514.4,408.4,516,409.6,517.6,410.7z"/>
<path class="st2" d="M468.6,461.7c3.4-1.8,5-5.6,8.1-7.8c0.6,0.3,1.3,0.5,1.9,0.8c1,2.3,4.4,5.8-2.3,4.1c-2.5-0.7-3.7,1.8-5.4,3
	c-1.7,1.2-2.3,4.3-5.3,3.2c0-0.7,0.2-1.3,0.7-1.9C467,462.4,467.7,461.8,468.6,461.7z"/>
<path class="st26" d="M466.6,463.7c-0.3,0.4-0.7,0.8-1,1.2c-0.3-0.1-0.6-0.1-0.9-0.1c-9.2-8.8-18.5-17.6-27.1-27.1
	c1-0.7,2-1.4,2.9-2.1c5.1,1.4,6.6,6.7,10.5,9.6c5,3.8,9.1,8.7,13.5,13.2C465.9,459.9,467.4,461.4,466.6,463.7z"/>
<path class="st27" d="M517.6,405.7c-2.1,0-3.1-1.7-4.4-3c-6.1-5.9-11.7-12.3-18.5-17.5c-0.9-0.7-1.7-1.6-3-1.6c0.2-1,0.9-1.7,1.9-2
	c5.2,4.6,10.5,8.9,15,14.3C511.4,399.4,516.1,401,517.6,405.7z"/>
<path class="st28" d="M466.6,463.7c-4-7.2-10.6-12.2-16.5-17.7c-3.5-3.3-6-7.3-9.5-10.4c0.1-1.4,0.7-2.4,1.9-2.9
	c1.2,4.1,5.2,5.7,7.9,8.5c6.2,6.7,13.6,12.2,18.2,20.4C468.3,462.6,467.6,463.3,466.6,463.7z"/>
<path class="st0" d="M476.6,397.7c-0.9,1.8-2.4,2.9-4,4c-0.7,0.3-1.4,0.6-2.1,0.9C471.3,399.3,473.8,398.2,476.6,397.7z"/>
<path class="st0" d="M341.6,292.7c1.4-3.9,4.1-6.6,8-8C347.5,287.9,344.9,290.6,341.6,292.7z"/>
<path class="st12" d="M361.6,273.7c0.4-0.3,0.7-0.6,1.1-0.9c0,3.3,0,6.6,0,9.9C360.6,279.9,362,276.6,361.6,273.7z"/>
<path class="st12" d="M363.6,270.6c2.8-7.9,12.2-10.5,19-6.1c-1,0-2,0.2-2.9-0.1c-5.3-1.9-9.6-0.6-13.1,3.7
	C365.8,269.1,364.6,269.8,363.6,270.6z"/>
<path class="st29" d="M517.6,410.7c-2.1-0.2-3.7-1.2-5.2-2.7c-7-7-14-14-20.9-21c-0.5-0.5-0.6-1.5-0.9-2.2c0.3-0.1,0.5-0.2,0.8-0.2
	C500.8,392.6,509,401.9,517.6,410.7z"/>
</svg>
