<?xml version="1.0" encoding="utf-8"?>
<!-- Generator: Adobe Illustrator 21.0.0, SVG Export Plug-In . SVG Version: 6.00 Build 0)  -->
<svg version="1.1" id="图层_1" xmlns="http://www.w3.org/2000/svg" xmlns:xlink="http://www.w3.org/1999/xlink" x="0px" y="0px"
	 viewBox="0 0 300 300" enable-background="new 0 0 300 300" xml:space="preserve">
<path fill="#DCE325" d="M168.5,61.7c0.2-0.9,0.3-1.9,0.5-2.8c3.1-10.9,0.1-22.4,3.5-33.3c0.9-2.7-1.3-6.6,3.9-7.4
	c8,8.1,11.1,18.8,17.5,28.1c5.3-4,7.8-9.4,11.8-13.7c1.6-1.8,3.3-3.5,6-3c2.9,0.5,3.4,2.9,3.8,5.1c1.5,7.2,0.8,14.5,1.2,21.8
	c-2,5.9-2.8,12.4-9.5,16.1c-1,0.2-2,0.2-3.1,0.2c-3,0-5.9-5.4-8.7-0.6c-2.7,4.8,1.1,6.7,5.5,8c1,0.3,1.7,1.1,2.2,1.9
	c1.5,6.6-1.5,11.8-5.7,16.8c-6.8,2.8-13.6-1.3-20.4-0.2c-14.9-1-15.9-2.8-10.7-19.9C172.1,73.8,169.5,67.7,168.5,61.7z"/>
<path fill="#E3CA19" d="M205.9,71.6c5.7-4,6.3-10.4,8.7-15.9c1.5-2.4,3.4-4.2,6.7-4.5c9.6-4.4,18.4-10.4,29.1-12.8
	c5-0.6,8.1,0.1,3.9,5.2c-6.9,8.5-14.6,16.5-19.7,26.1c-1.2,2.5-2.5,4.9-3.7,7.4c-7.1,3.2-11.9,7.4-8.2,15.4c0.6,2.2-0.2,3.8-2,5.2
	c-3.4,9.7-12.8,9.9-23.2,0.6c-0.6-5.9,5.6-10.3,4.3-16.4C201.4,77.9,202.9,74.5,205.9,71.6z"/>
<path fill="#3A4431" d="M197.5,98.3c3.9,1.1,7.9,1.9,11.6,3.5c5.7,2.5,9.3,0.8,11.6-4.1c-0.8,5.6,1.7,8.6,7.4,11.4
	c20.3,10.1,34.9,25.2,44.5,44.4c-1.4,1.1-0.2,3.6-2.7,4.2c-4.6-1.6-4.5-6.6-8-9.1c-18.3-29.1-46.9-43-82.7-46.2
	c-2.8-0.2-5.6-0.4-7.1-3.1c0-2.9,3.5-1.4,4.6-2.9C183.6,97,190.5,97.7,197.5,98.3z"/>
<path fill="#384030" d="M176.7,96.4c-1.1,1.7-3,1.9-4.9,2.2c-8.3,4.1-16.9,2.6-25.5,0.9c-6.4-5.9-0.9-11.7,0.1-17.5
	c0-13.2-5.9-18-20.5-16.7c-4.1,0.9-6.7,4.6-11.1,5c-1.5-0.3-2.5-1.2-2.8-2.6c8-9,18-11.4,29.1-7.1c10.1,3.9,14,11.6,11.8,23.4
	c-0.3,1.6-0.6,3.1-0.9,4.6c-0.5,2.4-2,5,2.6,5.5c3.7,0.4,5.9-0.7,6.7-4.1c1.1-4.9,2.3-9.8,3.4-14.7c2.3-0.3,3.9,0.3,4.3,2.6
	c-0.6,1.8-1.1,3.6-1.8,5.4C163.9,91.7,165.4,97,176.7,96.4z"/>
<path fill="#273621" d="M276.8,214.3c-6.1,38.9-33.3,59.2-72.9,68.4c-1.3-1.3-4.4-0.1-4.6-2.8c5.8-5.5,14.2-6,21.4-8.9
	c25.4-10.3,43-26.1,48.2-51.8c0.7-3.3,0.9-7,4.8-9C276.7,210.3,275.3,213.2,276.8,214.3z"/>
<path fill="#323226" d="M220.3,52.4c-2.1,0.8-2.9,3.5-5.7,3.3c-1.2-8.4,0.2-17-2.4-26c-8.8,6.4-12.3,15.7-20.2,23.5
	c-2.4-13-10-22.6-15.4-33.1c0.7-0.8,1-2,2.3-2.2c6.9,7.2,9.7,16.6,15.5,24.9c6.9-7.7,12.3-16.2,21.3-23.1c3,10.7-0.4,21.3,4.8,30.6
	C221.3,51.1,221.2,51.8,220.3,52.4z"/>
<path fill="#252F22" d="M112,282.7c-34.8-4.6-61.8-19.3-76.3-49.7c-0.7-1.4-0.9-3-1.3-4.5c-0.6-1.9-1.3-3.8,1.4-4.9
	c2.8,0.5,3.8,2.6,4.7,4.6c12.4,26.9,35.6,41.5,66,47.8c3.6,0.7,7.8,0.4,10.1,4C116.5,282.7,113.3,281.4,112,282.7z"/>
<path fill="#354232" d="M58.9,95.8c11,0.6,16.2,7.4,19.6,16.5c10.6-7.4,21-12.8,33.4-14.3c2.3,0.1,4.3,0.6,4.8,3
	c-2.8,4.4-8.3,3.9-12.5,5.7c-7.2,2.9-14.3,6.1-20.4,10.8c-8.5,6.5-9.6,6.2-12.5-3.3c-0.4-1.2-0.8-2.4-1.2-3.6
	c-1.1-3.8-3.8-6.3-7.5-8.2C59.7,101,57.5,99.2,58.9,95.8z"/>
<path fill="#1F281A" d="M199.1,280.7c1.8,0.3,3.6,0.4,4.7,2c-22.8,6-46,5-69.2,3c-0.7-1.2-0.6-2.3,0.4-3.3c3.6-2.4,7.8-2.2,11.9-2.3
	c14.8-0.4,29.7,0.8,44.5-1.1C194.1,278.5,196.9,278.9,199.1,280.7z"/>
<path fill="#262526" d="M178.9,18c-0.8,0.7-1.5,1.5-2.3,2.2c-4.5-0.5-2.6,2.7-2.7,4.3c-0.6,8.4-0.8,16.9-1.4,25.3
	c-0.2,3.2,0.9,7.1-3.6,9.1c-1.8-17.4,3.1-34.7-0.6-54C174.9,9.1,176.1,14.1,178.9,18z"/>
<path fill="#1E201C" d="M42.6,158.5c1.3-2.5,2.3-5.3,4-7.5c6.1-8.3,12.6-16.2-4.1-21.1c-3.2-0.9-5.4-4.7-6.1-8.3
	c-0.9-2-1.3-3.9,1.7-4.7c6.2,5.7,11.8,12.1,21.2,14.1c3.1,0.6,4.6,3.3,3,6c-5.2,8.7-8.5,18.5-17.8,24.8
	C42.7,161.2,41.8,160.3,42.6,158.5z"/>
<path fill="#232E1E" d="M276.8,214.3c-0.7-1.4-1.5-2.9-2.2-4.3c-3.1-3.2-2.8-7.1-1.9-10.8c2.3-9.8,1.3-19.4-1.4-28.9
	c-0.3-1-0.6-2-0.8-3c0-3.4-2.6-6.8,0.2-10.1c0.1-1.5,0.3-2.9,2-3.7C282.4,173.3,281.9,193.7,276.8,214.3z"/>
<path fill="#595540" d="M234.7,69.7c1.7-11,10.9-18,17.6-26.2c3.6-4.5,1.2-4.3-2.5-4.3c-0.6-0.4-0.7-0.9-0.6-1.3
	c0.2-0.4,0.4-0.6,0.6-0.6c3.8-1.6,7.6-3,13.5-1.2C253.5,47.5,244.1,58.6,234.7,69.7z"/>
<path fill="#4F89CD" d="M222.8,92.5c-4-3.2-5.7-6.9-3.4-11.6c2.4-4.9,7.2-3.9,11.6-3.9C232,83.9,228.9,88.9,222.8,92.5z"/>
<path fill="#363B35" d="M42.6,158.5c0.8,0.9,1.6,1.7,2.3,2.6c1.9,3.2-0.9,5.7-1.4,8.5c-0.4,1.2-0.8,2.4-1.4,3.6c-2,3.4-3,7-3.8,10.7
	c-0.9,2.4-1.2,5-2.7,7.3c-0.7,0.7-1.5,1-2.5,1c-2.2-0.8-1.2-3.1-2.4-4.4C32.5,177.2,36.7,167.6,42.6,158.5z"/>
<path fill="#394336" d="M38.8,117.3c-0.8,1.4-1.5,2.8-2.3,4.3c-4.9-14.2,0.5-22,17.7-25.6c1.6,3.9-1.4,5.5-4.2,7.1
	C43.5,106,42.8,112.7,38.8,117.3z"/>
<path fill="#7DC85E" d="M47.3,101.8c2.2-2.1,6.2-2.3,6.9-5.9c1.5-1.3,3.1-1,4.7-0.1c2.1,6.3,12.8,5.7,13.1,13.5
	C63,108.7,54.9,106.1,47.3,101.8z"/>
<path fill="#4182DB" d="M169.1,78c-1.4-0.9-2.9-1.7-4.3-2.6c-3.6-5.6,0.7-9.5,3.7-13.7C170,67.1,182.2,72.2,169.1,78z"/>
<path fill="#746E43" d="M249.8,37.2c0,0.6,0,1.3,0,1.9c-10,4.1-18.8,10.3-29.4,13.2c0.1-0.7,0.2-1.3,0.3-2
	C229.5,44.5,239,39.6,249.8,37.2z"/>
<path fill="#363B35" d="M30.8,187.7c0.6,1.3,1.2,2.5,1.8,3.8c5.5,6.6,1,14.7,3.9,21.8c0.6,3.5,3.1,7,0.1,10.6
	c-0.7,1.5-1.5,3-2.2,4.6C28.1,215.2,29.5,201.5,30.8,187.7z"/>
<path fill="#262C25" d="M111.9,67.7c0.8,0.8,1.6,1.5,2.4,2.3c1.4,5.5,0.2,11,0,16.5c-0.7,2-1.1,4.1-4.2,4
	C105.6,82.6,105.7,75,111.9,67.7z"/>
<path fill="#272E25" d="M110.2,90.6c0.7-1.4,1.3-2.8,2-4.2c5.4,1.3,6.7,5.8,8.6,9.5c1.4,2.9,0.6,5.7-4.3,4.3
	c-1.8-0.2-3.7-0.5-4.6-2.2C113.7,95.1,110.2,93.2,110.2,90.6z"/>
<path fill="#1E251F" d="M134.9,282.7c-0.1,1-0.2,2-0.4,3c-7.5-1.1-15.3-0.4-22.6-3c1.6-0.7,3.3-1.4,4.9-2.1
	C123.5,277.3,129.3,279.4,134.9,282.7z"/>
<path fill="#4A88CA" d="M205.9,71.6c0.4,4-1.2,7.4-4.2,10.3c-6.4,1.4-9.9-1-10.2-7c-0.2-3.3,1.4-6,4.5-7.9
	C202.3,63.1,201.2,72.5,205.9,71.6z"/>
<path fill="#A1F47B" d="M145.1,98.2c8.9,0.1,17.8,0.2,26.6,0.4c9.8,1.7,19.8,3.1,29.5,5.2c28.2,6.2,49.1,21.2,63,44.4
	c-0.3,3.5-3.3,2.8-5.3,2.2c-5.5-1.9-11.4-1.7-16.9-2.9c-6.4-3.2-13.7-5.4-15.6-13.1c3-2.8,7.1-1.9,11.3-2.4c-7-5-13.2-1.1-19.6,0.2
	c-2.9,0.2-5.5-0.9-7.8-2.3c-18.2-11.4-38.3-19.1-59.1-25.7c-3-1-7-1.2-7.8-5.2c0-0.1,0.3-0.4,0.6-0.5
	C144.4,98.3,144.8,98.3,145.1,98.2z"/>
<path fill="#66D128" d="M241.8,145.7c7.9-2.1,14.8,3,22.6,2.5c4,1.9,3.3,6.6,6.3,9.1c-0.2,3.4,3.2,6.2,1.6,9.8
	c-3.3-0.1-4.3-2.7-6.1-4.6c-12.8-13.7-31.7-11.2-39.2,5.1c-0.7,1.5-1.2,2.9-3.1,3.5c-4.6-2-3.7-5.8-3.8-9.3
	C224.4,150.3,231.2,145.3,241.8,145.7z"/>
<path fill="#66F127" d="M241.8,145.7c-9.2,2.2-15.7,7.1-19.1,15.3c-8.2-0.5-9.4-8-14.4-11.7c-4.9-4.7-10.2-9-16.6-12
	c-23.3-12.3-46.4-9.1-69.3,1c-11,4.9-17.8,13.7-24.1,22.8c-2.2,3.2-3.3,7-6.5,9.6c-4.6,1.5-6.9-1.9-9.7-4c-10.5-8-17.5-8.3-29.1-1.9
	c-3.5,1.9-6.2,6.5-11.6,3.8c1.2-2.5,2.4-5,3.6-7.5c5.7-9.2,11.5-18.4,17.6-28.2c-11.6-1.3-20.8-4.7-23.8-15.6
	c0.2-6.4,1.7-12.1,8.6-15.5c8.9,0.6,17.1,3.1,24.6,7.4c1.1,3.6,2.2,7.2,3.7,12.2c11-12.1,25.6-17.1,40.8-21.2c3.2,0,4.6-0.8,2.5-3.7
	c-2.3-3.3-4.5-6.7-6.8-10.1c-0.7-5.6-1.4-11.2,2.1-16.4c3.3-2,5.4-5.8,10.1-5.9c13.2,0.3,19.6,4.7,24.4,16.9
	c-1.2,5.7-2.4,11.5-3.6,17.2c2.4,4.5,7.8,3.9,11.8,5.1c22.1,6.3,41.6,17.3,61.6,27.4c-0.3,6.4,7,0.1,8.2,4
	C231.8,138.4,236.8,142,241.8,145.7z"/>
<path fill="#95E571" d="M148.8,81c-5.9-8.3-13.5-14.6-24.4-16.9C140.3,60,149.3,66.2,148.8,81z"/>
<path fill="#66F127" d="M134.9,282.7c-6-0.7-12-1.4-18-2.1c-11.8-3.5-24.3-4.6-35.5-9.7c-21.9-10.1-37.8-25-44.9-47
	c-0.6-3.2-1.3-6.3-1.9-9.5c-1.7-7.6-1.3-15.2-0.2-22.9c0.9-2.6-0.5-5.6,1.9-7.9c1.7-0.7,2.8,0.1,3.8,1.3c2.7,5,1.7,10.9,4.4,15.9
	c1.1,10.5,9.1,19.1,19,20.5c12.5,1.8,18.6-1.3,24.4-12.4c0.7-1.4,1.3-2.9,2.5-4.1c0.8-0.6,1.8-0.9,2.8-1.1
	c8.3,3.2,15.1,8.1,20.8,14.4c1.5,4.2,3.4,8.3,5.5,12.2c11.6,21.4,32,27.1,54.7,22c12.9-2.9,18.1-12.8,21.8-23.4
	c1.1-3.3,0.9-6.9,2.3-10.2c8.1-6.8,17.2-12.7,24.6-20.2c3.2-0.2,4.8,2,6.7,3.8c14,13.1,28.8,10.4,36.9-6.8c1.3-2.9,1.4-6,1.2-9.1
	c2.5-5.5,1-12.2,5.6-17.1c6.2,13.4,2.2,27.1,1.5,40.7c-0.7,1.8-1.6,3.5-1.9,5.3c-6.4,34.5-31,53-65.7,62.9c-2.6,0.8-5.2,1.6-7.8,2.4
	C177.8,284.5,156.4,283,134.9,282.7z"/>
<path fill="#FBFCFB" d="M273,169.3c-0.2,6.4-0.8,12.6-4,18.4c-4.6,10.5-18.9,15.1-32.9,10.6c-4.2-1.4-8.2-3.2-10.7-6.9
	c-1.9-6.9-2.5-13.9-1-20.9c-2.1-9.3,4.2-14.2,12-17.4c9.9-4,19.7-2.7,27.9,4.1c3.2,2.7,5.3,6.5,7.9,9.7
	C272.5,167.8,272.8,168.5,273,169.3z"/>
<path fill="#58D014" d="M41.4,168.6c3.6,0.1,5.3-2.6,7.7-4.3c11.8-8.7,25.9-9.4,36.4,2c1.5,1.6,3.7,2.8,5.5,4.2
	c1.4,2.7,0.1,4.6-2.1,6.2c-1.4,0-2.6-0.5-3.7-1.3c-14.8-10.4-21.2-10.8-37.1-2.5c-1.8,0.9-3.5,2-5.6,2.1c-1.7-0.5-2.9-1.2-1.8-3
	C40.9,170.9,41.2,169.7,41.4,168.6z"/>
<path fill="#5ED228" d="M40.7,172c0.9,0.8,1.7,1.6,2.6,2.4c1.9,5,1.7,9.3-4.2,12c-0.9-0.9-1.8-1.8-2.8-2.8
	C36.9,179.5,37.7,175.4,40.7,172z"/>
<path fill="#476D39" d="M34.4,191.5c0.1,7.6,0.1,15.2,0.2,22.9c-4.2-7.3-1-15.2-2-22.8C33.2,191.6,33.8,191.5,34.4,191.5z"/>
<path fill="#2B7E09" d="M226.8,134.7c-3.6,0.8-7.2,1.5-11,2.3c-1.7-3.2,2.5-4.1,2.8-6.4c11.1-6.6,16.3-6.1,24.2,3.1
	C237.3,134.1,232,134.4,226.8,134.7z"/>
<path fill="#56BF05" d="M88.9,176.3c0.7-1.9,1.4-3.9,2.1-5.8c14-43.2,76.3-53.9,102.4-34.2c0.4,2-1,2.8-2.7,3.3
	c-12.2-1.1-23.7-6.5-36.3-4.5c-27.7,0.9-50.2,17-57.1,40.8c-4.7,16.3,1,28.4,18,34.8c28.4,10.7,57.1,9,85.2-0.9
	c15.1-5.3,18.1-17.9,18.2-31.2c-1-10.2-8.4-17.9-12.2-27.1c0.2-2,0.3-4.1,3.5-3.8c4.2,4.4,8.4,8.8,12.7,13.2
	c0.1,3.3-1.4,6.8,1.9,9.5c3.3,6.5,1,13.6,2.8,20.3c0.6,1.7,0.4,3.3-0.5,4.9c-0.8,1.6-2.3,2.7-4,3.4c-4.7,9.4-13.1,15.1-23.1,19.2
	c-9.7,16.7-23.1,27.8-45.5,27.1c-12.3-0.4-21.7-5.6-29.7-13.5c-4.4-4.4-8.2-9.3-12.5-13.8c-6.3-4.5-12.6-8.9-18.8-13.4
	c-2.8-1-5.9-1.8-6.5-5.2C86.2,191.7,83.7,183.7,88.9,176.3z"/>
<path fill="#204206" d="M142.9,84.4c-1.4,6.1-2.9,12.7-10.4,12.7c-6.1,0-8.9-5.6-9.4-10.8c-0.6-5.8,3.9-8.5,9.7-8.6
	C137.9,77.6,142.3,79.2,142.9,84.4z"/>
<path fill="#1F4004" d="M69.7,121.3c0.1,4.4-2.2,7.4-6.7,7c-6.4-0.6-12.9-2.7-13.4-9.7c-0.3-5.2,3.5-9.4,9.6-9.3
	C67.4,109.5,68.2,116,69.7,121.3z"/>
<path fill="#2F8B0A" d="M55.8,152c9.6-12.8,17.5-13.1,26.9-1.1C73.6,151.6,65.2,149.7,55.8,152z"/>
<path fill="#5FC314" d="M190.9,138.4c0.8-0.7,1.7-1.4,2.5-2.1c6.9,2.1,11.7,6.9,16.5,11.5c-1.6,0.8-1.8,2.2-1.9,3.7
	C199.2,150.5,195,144.6,190.9,138.4z"/>
<path fill="#FBFCFB" d="M88.9,176.3c-0.1,8.1-0.1,16.3-0.2,24.4c-9.2,17.3-31.7,18.1-45.4,1.6c-0.1-0.5-0.2-1-0.3-1.4
	c-3-4.5-3.1-9.6-4-14.5c1.4-4,2.8-8,4.2-12C59.5,160.4,74,161,88.9,176.3z"/>
<path fill="#4EFC0E" d="M112,218.2c4.5,0,7.1,2.9,9,5.8c16,24.4,50.5,27.5,73.3-0.1c1.6-2,2.4-4.7,5.4-5.5
	c-0.2,19.8-12,35.4-28.8,37.8c-24.8,3.6-48.1-7.6-54.7-26.6C115,225.7,110.8,222.8,112,218.2z"/>
<path fill="#51F710" d="M91.1,204.9c-3,14.8-8.6,19.2-24.2,19.1c-11.9-0.1-23.9-9.3-25.7-19.8c-0.2-1,1.1-2.1,1.8-3.2
	c0,0,0,0.1,0,0.1c13.7,16.1,24.9,17.5,42.5,5.2C87.2,205.1,88.9,204,91.1,204.9z"/>
<path fill="#4FFB0F" d="M222.8,199.2c0.7-1.3,1.3-2.5,2-3.8c3.6-1.1,5.9,1.2,8.4,2.8c8.8,5.5,17.4,5.3,26.1-0.2
	c2.8-1.8,5.5-4.1,9.4-2.6c-1.2,8.7-7.1,14.7-15.6,16.7c-9.2,2.2-18.7,0.9-24.9-7.2C226.5,202.7,225.6,200.2,222.8,199.2z"/>
<path fill="#56D213" d="M268.6,195.3c-1.2,0.6-2.5,1.1-3.7,1.8c-18.7,10.8-22.5,10.7-40.2-1.7c0.8-1.5,1.7-3,2.5-4.5
	c17.5,10.5,27.9,9.8,41.8-3.1C272.1,190.4,269.8,192.8,268.6,195.3z"/>
<path fill="#5DD21D" d="M91.1,204.9c-7.5,4.5-12.5,12.3-23.8,11.7c-12.3-0.6-19.9-5.6-24.3-15.5c16.8,14.5,29,14.4,45.7-0.3
	c1.5,1.4,3,2.7,4.5,4.1C92.5,204.8,91.8,204.8,91.1,204.9z"/>
<path fill="#121212" d="M265.5,172.4c-0.1,4-2.2,6.2-6.3,6.4c-4.5,0.2-7.3-2-7.4-6.2c0-3.5,2.1-6,6.3-6.2
	C262.7,166.3,265,168.6,265.5,172.4z"/>
<path fill="#8CF11A" d="M220.9,178.1c1.2,12.9-1.1,25.9-14.4,31.7c-31.4,13.8-64.4,15.6-96.2,1.4c-19.4-8.7-23.1-26-11.4-46.7
	c11.3-20,29.8-31.1,54.9-31.9c30.3,2.8,48.4,21,64,42.3C218.8,176,218.4,178.1,220.9,178.1z"/>
<path fill="#72EF0D" d="M157.5,239.3c-10.9-0.9-20.3-4.2-27.8-11.7c-1.1-1.1-2.9-2.2-2.1-4c0.8-2,2.8-1.3,4.4-1
	c15.9,2,31.7,2.3,47.5-0.3c2.2-0.4,5.2-1.3,6.5,1.4c1,2.1-1.4,3.3-2.8,4.7C176.3,235.2,167.3,238,157.5,239.3z"/>
<path fill="#B6F570" d="M220.9,178.1c-3,0.6-3,0.6-4.4-1.3c-12.7-17.7-27.9-32.6-50.1-40.6c-4.1-1.5-9.1-0.3-12.5-3.6
	c13-1.4,25.2,1.4,37.1,5.9c5.7,4.4,11.4,8.7,17.1,13.1C213.9,159.8,220.2,167.8,220.9,178.1z"/>
<path fill="#181818" d="M59.9,189.3c-0.8,3.7-3.1,6.2-7.7,5.7c-4.4-0.5-6.9-3.1-6.3-7.2c0.5-3.4,3.1-5.8,7.2-5.5
	C57.3,182.6,59.9,184.8,59.9,189.3z"/>
<path fill="#1E3B04" d="M149.5,180.3c-1.3,4.7,0.8,12.6-9.8,12.8c-9.9,0.2-23.3-10.5-23.5-18.5c-0.2-7,8.5-13.3,18.5-13.5
	C143.8,161,149.5,168,149.5,180.3z"/>
<path fill="#1F3C04" d="M164.8,177.4c0.6-10.8,5.4-16.5,13.5-15.5c6.7,0.8,13.2,2.9,12.9,10.9c-0.3,7.2-11.9,17.4-18.9,16.4
	C164.1,188.1,166,181.5,164.8,177.4z"/>
</svg>
